<svg width="336" height="192" viewBox="0 0 336 192" fill="none" xmlns="http://www.w3.org/2000/svg">
<path d="M126.129 66.5009L122.945 69.7918C122.213 69.2668 121.54 68.6713 120.937 68.0147C115.778 61.7388 112.089 54.4868 110.119 46.745C108.149 39.0032 107.943 30.9504 109.514 23.1265C110.023 19.2963 111.413 15.6195 113.584 12.3568C115.755 9.09399 118.654 6.32507 122.076 4.24623C125.498 2.1674 129.359 0.829508 133.386 0.327381C137.412 -0.174746 141.506 0.171176 145.376 1.34063C160.246 4.74047 173.281 13.2209 182 25.1669L184.838 28.9844L188.923 25.5618C189.477 26.4833 190.031 27.4705 190.654 28.392C195.768 34.7821 199.354 42.1569 201.16 50.0011C202.965 57.8453 202.948 65.9697 201.108 73.8067C200.416 77.4973 198.903 81.0049 196.67 84.0948C194.437 87.1847 191.536 89.7856 188.16 91.7235C184.785 93.6614 181.013 94.8916 177.097 95.3318C173.181 95.7721 169.211 95.4122 165.453 94.2762C150.258 90.6226 137.033 81.7324 128.345 69.331L126.614 66.8958C126.614 66.8958 126.614 66.7641 126.129 66.5009ZM185.807 35.632C181.238 41.5557 178.33 38.0015 174.938 35.632C171.216 32.6914 167.178 30.1323 162.892 27.9971C160.607 26.944 155.207 26.8782 154.861 27.9971C153.407 31.5513 157.284 32.6044 159.776 34.184C165.592 37.8698 171.476 41.4899 177.153 45.3731C178.261 46.0972 179.369 48.4008 178.884 49.1248C177.738 50.6588 176.152 51.8469 174.315 52.5474C173.713 52.7918 173.065 52.9178 172.411 52.9178C171.757 52.9178 171.109 52.7918 170.507 52.5474C163.65 49.8846 156.968 46.8294 150.499 43.3986C147.551 41.7601 144.232 40.8208 140.821 40.6604C137.411 40.5 134.01 41.1232 130.906 42.4771C128.29 44.365 126.39 47.0094 125.491 50.0124C124.592 53.0155 124.743 56.2148 125.922 59.1292C129.937 54.9168 132.845 57.1546 136.237 60.1823C137.821 61.6541 139.588 62.9361 141.499 63.9998C145.169 65.9748 148.987 67.6907 152.922 69.1336C153.75 69.1279 154.563 68.9263 155.288 68.5471C156.013 68.1679 156.628 67.623 157.076 66.9616C158.045 65.1845 157.076 63.9997 154.722 62.7492C147.857 59.3485 141.221 55.5456 134.853 51.3626C133.468 50.507 131.945 47.1502 132.36 46.8212C133.905 45.0935 136.083 43.9879 138.453 43.7277C142.476 44.0457 146.423 44.9561 150.153 46.4262C156.176 48.5983 161.853 51.5601 167.876 53.6663C170.291 54.7582 173.005 55.1042 175.637 54.6556C178.269 54.2071 180.688 52.9865 182.553 51.1652C184.322 48.9915 185.537 46.4575 186.101 43.7623C186.666 41.067 186.565 38.2841 185.807 35.632Z" fill="#FF7F00"/>
<path d="M64.2038 155.744V128.764H82.7098V135.224H71.6138V139.708H80.6578V145.712H71.6138V155.744H64.2038ZM97.4419 155.972C95.3899 155.972 93.5279 155.592 91.8559 154.832C90.1839 154.046 88.7399 153.008 87.5239 151.716C86.3332 150.398 85.4086 148.929 84.7499 147.308C84.1166 145.661 83.7999 143.964 83.7999 142.216C83.7999 140.417 84.1419 138.707 84.8259 137.086C85.5099 135.464 86.4599 134.02 87.6759 132.754C88.9172 131.462 90.3739 130.448 92.0459 129.714C93.7432 128.979 95.5926 128.612 97.5939 128.612C99.6459 128.612 101.508 129.004 103.18 129.79C104.852 130.55 106.283 131.588 107.474 132.906C108.665 134.223 109.577 135.705 110.21 137.352C110.869 138.973 111.198 140.645 111.198 142.368C111.198 144.141 110.856 145.838 110.172 147.46C109.513 149.081 108.563 150.538 107.322 151.83C106.106 153.096 104.662 154.11 102.99 154.87C101.318 155.604 99.4686 155.972 97.4419 155.972ZM91.3239 142.292C91.3239 143.482 91.5392 144.622 91.9699 145.712C92.4259 146.801 93.1099 147.688 94.0219 148.372C94.9592 149.056 96.1246 149.398 97.5179 149.398C98.9619 149.398 100.127 149.043 101.014 148.334C101.926 147.624 102.597 146.725 103.028 145.636C103.459 144.521 103.674 143.381 103.674 142.216C103.674 141 103.446 139.86 102.99 138.796C102.534 137.732 101.85 136.87 100.938 136.212C100.026 135.528 98.8732 135.186 97.4799 135.186C96.0612 135.186 94.8959 135.54 93.9839 136.25C93.0719 136.934 92.4006 137.82 91.9699 138.91C91.5392 139.974 91.3239 141.101 91.3239 142.292ZM121.749 142.482V155.744H114.339V128.764H120.115L130.945 142.482V128.764H138.355V155.744H132.465L121.749 142.482ZM149.219 128.764H157.503L166.091 155.744H158.567L156.933 150.462H149.751L148.155 155.744H140.593L149.219 128.764ZM155.755 145.522L153.361 136.022L150.853 145.522H155.755ZM171.349 128.764L176.631 147.194L181.837 128.764H189.627L180.317 155.744H172.945L163.521 128.764H171.349ZM191.674 155.744V128.764H199.084V155.744H191.674ZM209.967 128.764H218.251L226.839 155.744H219.315L217.681 150.462H210.499L208.903 155.744H201.341L209.967 128.764ZM216.503 145.522L214.109 136.022L211.601 145.522H216.503ZM229.081 155.744V128.764H240.709C242.026 128.764 243.242 129.03 244.357 129.562C245.471 130.094 246.434 130.816 247.245 131.728C248.055 132.614 248.676 133.615 249.107 134.73C249.563 135.844 249.791 136.972 249.791 138.112C249.791 139.708 249.411 141.215 248.651 142.634C247.916 144.052 246.877 145.218 245.535 146.13C244.217 147.016 242.672 147.46 240.899 147.46H236.491V155.744H229.081ZM236.491 141H240.405C240.861 141 241.279 140.797 241.659 140.392C242.064 139.961 242.267 139.201 242.267 138.112C242.267 136.997 242.039 136.237 241.583 135.832C241.127 135.426 240.671 135.224 240.215 135.224H236.491V141ZM252.757 155.744V128.764H264.385C265.702 128.764 266.918 129.03 268.033 129.562C269.147 130.094 270.11 130.816 270.921 131.728C271.731 132.614 272.352 133.615 272.783 134.73C273.239 135.844 273.467 136.972 273.467 138.112C273.467 139.708 273.087 141.215 272.327 142.634C271.592 144.052 270.553 145.218 269.211 146.13C267.893 147.016 266.348 147.46 264.575 147.46H260.167V155.744H252.757ZM260.167 141H264.081C264.537 141 264.955 140.797 265.335 140.392C265.74 139.961 265.943 139.201 265.943 138.112C265.943 136.997 265.715 136.237 265.259 135.832C264.803 135.426 264.347 135.224 263.891 135.224H260.167V141Z" fill="#FF7F00"/>
<path d="M243.689 191.231V173.481H255.864V177.731H248.564V180.681H254.514V184.631H248.564V191.231H243.689ZM263.193 191.481C261.627 191.481 260.31 191.164 259.243 190.531C258.177 189.881 257.368 189.039 256.818 188.006C256.268 186.972 255.993 185.856 255.993 184.656C255.993 183.439 256.268 182.314 256.818 181.281C257.368 180.247 258.177 179.414 259.243 178.781C260.31 178.147 261.627 177.831 263.193 177.831C264.76 177.831 266.077 178.147 267.143 178.781C268.21 179.414 269.018 180.247 269.568 181.281C270.118 182.314 270.393 183.439 270.393 184.656C270.393 185.856 270.118 186.972 269.568 188.006C269.018 189.039 268.21 189.881 267.143 190.531C266.077 191.164 264.76 191.481 263.193 191.481ZM260.868 184.656C260.868 185.522 261.085 186.214 261.518 186.731C261.968 187.231 262.527 187.481 263.193 187.481C263.877 187.481 264.435 187.231 264.868 186.731C265.302 186.214 265.518 185.522 265.518 184.656C265.518 183.772 265.302 183.081 264.868 182.581C264.435 182.081 263.877 181.831 263.193 181.831C262.527 181.831 261.968 182.081 261.518 182.581C261.085 183.081 260.868 183.772 260.868 184.656ZM285.3 191.231H280.55V183.831C280.55 183.181 280.4 182.714 280.1 182.431C279.816 182.131 279.483 181.981 279.1 181.981C278.7 181.981 278.275 182.156 277.825 182.506C277.375 182.856 277.041 183.306 276.825 183.856V191.231H272.075V178.081H276.35V180.031C276.816 179.314 277.475 178.772 278.325 178.406C279.175 178.022 280.166 177.831 281.3 177.831C282.2 177.831 282.916 177.989 283.45 178.306C283.983 178.622 284.383 179.031 284.65 179.531C284.916 180.031 285.091 180.556 285.175 181.106C285.258 181.639 285.3 182.131 285.3 182.581V191.231ZM286.902 184.631C286.902 183.331 287.144 182.172 287.627 181.156C288.127 180.122 288.81 179.314 289.677 178.731C290.544 178.131 291.535 177.831 292.652 177.831C293.502 177.831 294.285 178.031 295.002 178.431C295.719 178.814 296.26 179.347 296.627 180.031V172.981H301.377V185.981C301.377 186.431 301.444 186.747 301.577 186.931C301.71 187.097 301.944 187.197 302.277 187.231V191.231C301.46 191.397 300.794 191.481 300.277 191.481C298.66 191.481 297.727 190.872 297.477 189.656L297.377 189.181C296.927 189.981 296.319 190.564 295.552 190.931C294.785 191.297 293.969 191.481 293.102 191.481C291.902 191.481 290.835 191.189 289.902 190.606C288.969 190.022 288.235 189.214 287.702 188.181C287.169 187.147 286.902 185.964 286.902 184.631ZM296.652 186.131V183.781C296.435 183.197 296.094 182.731 295.627 182.381C295.177 182.014 294.702 181.831 294.202 181.831C293.519 181.831 292.944 182.114 292.477 182.681C292.027 183.247 291.802 183.931 291.802 184.731C291.802 185.547 292.044 186.214 292.527 186.731C293.01 187.231 293.635 187.481 294.402 187.481C295.285 187.481 296.035 187.031 296.652 186.131ZM310.703 191.481C309.136 191.481 307.82 191.164 306.753 190.531C305.686 189.881 304.878 189.039 304.328 188.006C303.778 186.972 303.503 185.856 303.503 184.656C303.503 183.439 303.778 182.314 304.328 181.281C304.878 180.247 305.686 179.414 306.753 178.781C307.82 178.147 309.136 177.831 310.703 177.831C312.27 177.831 313.586 178.147 314.653 178.781C315.72 179.414 316.528 180.247 317.078 181.281C317.628 182.314 317.903 183.439 317.903 184.656C317.903 185.856 317.628 186.972 317.078 188.006C316.528 189.039 315.72 189.881 314.653 190.531C313.586 191.164 312.27 191.481 310.703 191.481ZM308.378 184.656C308.378 185.522 308.595 186.214 309.028 186.731C309.478 187.231 310.036 187.481 310.703 187.481C311.386 187.481 311.945 187.231 312.378 186.731C312.811 186.214 313.028 185.522 313.028 184.656C313.028 183.772 312.811 183.081 312.378 182.581C311.945 182.081 311.386 181.831 310.703 181.831C310.036 181.831 309.478 182.081 309.028 182.581C308.595 183.081 308.378 183.772 308.378 184.656Z" fill="#FF7F00"/>
</svg>
