<svg width="29" height="29" viewBox="0 0 29 29" fill="none" xmlns="http://www.w3.org/2000/svg">
<path d="M28.1504 3.45508H25.5449V0.849609C25.5449 0.380002 25.1649 0 24.6953 0H21.2969C20.8273 0 20.4473 0.380002 20.4473 0.849609V3.45508H17.0488V0.849609C17.0488 0.380002 16.6688 0 16.1992 0H12.8008C12.3312 0 11.9512 0.380002 11.9512 0.849609V3.45508H8.55273V0.849609C8.55273 0.380002 8.17273 0 7.70312 0H4.30469C3.83508 0 3.45508 0.380002 3.45508 0.849609V3.45508H0.849609C0.380002 3.45508 0 3.83508 0 4.30469V28.1504C0 28.62 0.380002 29 0.849609 29H28.1504C28.62 29 29 28.62 29 28.1504V4.30469C29 3.83508 28.62 3.45508 28.1504 3.45508ZM22.1465 1.69922H23.8457V5.1543H22.1465V1.69922ZM13.6504 1.69922H15.3496V5.1543H13.6504V1.69922ZM5.1543 1.69922H6.85352V5.1543H5.1543V1.69922ZM27.3008 27.3008H1.69922V5.1543H3.45508V6.00391C3.45508 6.47351 3.83508 6.85352 4.30469 6.85352H7.70312C8.17273 6.85352 8.55273 6.47351 8.55273 6.00391V5.1543H11.9512V6.00391C11.9512 6.47351 12.3312 6.85352 12.8008 6.85352H16.1992C16.6688 6.85352 17.0488 6.47351 17.0488 6.00391V5.1543H20.4473V6.00391C20.4473 6.47351 20.8273 6.85352 21.2969 6.85352H24.6953C25.1649 6.85352 25.5449 6.47351 25.5449 6.00391V5.1543H27.3008V27.3008ZM24.6953 8.55273H4.30469C3.83508 8.55273 3.45508 8.93274 3.45508 9.40234V24.6953C3.45508 25.1649 3.83508 25.5449 4.30469 25.5449H24.6953C25.1649 25.5449 25.5449 25.1649 25.5449 24.6953V9.40234C25.5449 8.93274 25.1649 8.55273 24.6953 8.55273ZM8.55273 23.8457H5.1543V20.4473H8.55273V23.8457ZM8.55273 18.748H5.1543V15.3496H8.55273V18.748ZM8.55273 13.6504H5.1543V10.252H8.55273V13.6504ZM13.6504 23.8457H10.252V20.4473H13.6504V23.8457ZM13.6504 18.748H10.252V15.3496H13.6504V18.748ZM13.6504 13.6504H10.252V10.252H13.6504V13.6504ZM18.748 23.8457H15.3496V20.4473H18.748V23.8457ZM18.748 18.748H15.3496V15.3496H18.748V18.748ZM18.748 13.6504H15.3496V10.252H18.748V13.6504ZM23.8457 23.8457H20.4473V20.4473H23.8457V23.8457ZM23.8457 18.748H20.4473V15.3496H23.8457V18.748ZM23.8457 13.6504H20.4473V10.252H23.8457V13.6504Z" fill="#BCBCBC"/>
</svg>
