<svg width="28" height="31" viewBox="0 0 28 31" fill="none" xmlns="http://www.w3.org/2000/svg">
<mask id="path-1-outside-1" maskUnits="userSpaceOnUse" x="0" y="0" width="28" height="31" fill="black">
<rect fill="white" width="28" height="31"/>
<path d="M27.4727 6.1524C27.4057 5.40087 26.7862 4.83412 26.0316 4.83412H22.2884V4.28248H22.3613C22.8958 4.28248 23.3307 3.84762 23.3307 3.31317V1.96931C23.3307 1.43486 22.8958 1 22.3613 1H11.3441C11.1044 1 10.91 1.19428 10.91 1.43404C10.91 1.67381 11.1044 1.86809 11.3441 1.86809H22.3613C22.4171 1.86809 22.4626 1.91346 22.4626 1.96931V3.31317C22.4626 3.36902 22.4171 3.41439 22.3613 3.41439H6.13347C6.07762 3.41439 6.03219 3.36902 6.03219 3.31317V1.96931C6.03219 1.91346 6.07762 1.86809 6.13347 1.86809H9.309C9.54871 1.86809 9.74304 1.67381 9.74304 1.43404C9.74304 1.19428 9.54871 1 9.309 1H6.13347C5.59896 1 5.1641 1.43486 5.1641 1.96931V3.31317C5.1641 3.84762 5.59896 4.28248 6.13347 4.28248H6.20633V4.83412H2.46313C1.70858 4.83412 1.08906 5.40087 1.02204 6.1524C1.01324 6.25067 0.818214 8.59005 1.77618 11.181C2.65266 13.5516 4.6635 16.5784 9.27074 17.7663C10.0124 18.3524 10.8593 18.8109 11.7782 19.1081L11.9967 19.4687C12.4096 20.1504 12.6278 20.9563 12.6278 21.7992C12.6278 22.3141 12.5458 22.8171 12.3839 23.2942L12.0806 24.1882H11.0712C10.0354 24.1882 9.19267 25.0309 9.19267 26.0668V26.976H7.61298C7.16719 26.976 6.8045 27.3388 6.8045 27.7846V29.8234C6.8045 30.2692 7.16719 30.6319 7.61298 30.6319H20.8818C21.3276 30.6319 21.6903 30.2692 21.6903 29.8234V27.7846C21.6903 27.3388 21.3276 26.976 20.8818 26.976H19.3022V26.0668C19.3022 25.0309 18.4594 24.1882 17.4236 24.1882H16.4143L16.1109 23.2942C15.949 22.8172 15.867 22.3141 15.867 21.7992C15.867 20.9563 16.0852 20.1505 16.4981 19.4687L16.7166 19.1081C17.6354 18.8109 18.4823 18.3524 19.224 17.7663C23.8313 16.5784 25.8421 13.5516 26.7186 11.181C27.6766 8.59005 27.4815 6.25073 27.4727 6.1524ZM6.36704 13.058C5.55775 12.3003 4.93776 11.3604 4.51373 10.2402C4.2191 9.46179 4.02627 8.61668 3.94044 7.72775H6.20633V11.4554C6.20633 12.0041 6.26183 12.54 6.36704 13.058ZM2.59045 10.88C1.6995 8.47032 1.87867 6.31988 1.88672 6.22955C1.91351 5.92895 2.16132 5.70227 2.46313 5.70227H6.20633V6.85972H3.9045C3.67 6.85972 3.44499 6.95909 3.28712 7.13236C3.12907 7.30586 3.05094 7.53943 3.07276 7.77324C3.16414 8.75262 3.37578 9.68605 3.70183 10.5475C4.34578 12.2489 5.38813 13.5773 6.81492 14.5231C7.09566 15.2007 7.46645 15.8318 7.91241 16.4016C4.76773 15.0981 3.28671 12.7631 2.59045 10.88ZM20.8222 27.8441V29.7638H7.67253V27.8441H20.8222ZM17.4236 25.0563C17.9807 25.0563 18.4341 25.5096 18.4341 26.0668V26.976H10.0608V26.0668C10.0608 25.5096 10.5141 25.0563 11.0712 25.0563H17.4236ZM15.2889 23.5731L15.4975 24.1882H12.9972L13.2059 23.573C13.3983 23.006 13.4959 22.4092 13.4959 21.7992C13.4959 20.9454 13.305 20.1211 12.9422 19.39C13.3671 19.4597 13.803 19.4965 14.2474 19.4965C14.6917 19.4965 15.1276 19.4597 15.5525 19.39C15.1897 20.1211 14.9989 20.9454 14.9989 21.7992C14.9989 22.4092 15.0964 23.006 15.2889 23.5731ZM14.2474 18.6284C10.2922 18.6284 7.07442 15.4106 7.07442 11.4554V4.28248H21.4204V11.4554C21.4204 15.4106 18.2026 18.6284 14.2474 18.6284ZM25.9044 10.88C25.2081 12.7631 23.727 15.0984 20.5822 16.4019C21.029 15.8311 21.4003 15.1987 21.6813 14.5197C22.9064 13.7062 23.8499 12.6106 24.4996 11.2387C24.6022 11.022 24.5097 10.7632 24.2931 10.6606C24.0765 10.5581 23.8177 10.6504 23.7151 10.8671C23.3128 11.7165 22.7824 12.4483 22.1274 13.0607C22.2329 12.5418 22.2886 12.0051 22.2886 11.4555V7.72781H24.5544C24.5113 8.17441 24.4395 8.61731 24.3411 9.04488C24.2873 9.27851 24.4331 9.5115 24.6667 9.56521C24.9001 9.61926 25.1333 9.47325 25.187 9.23962C25.2967 8.76338 25.3757 8.27002 25.4221 7.77324C25.4439 7.53943 25.3658 7.30586 25.2078 7.13236C25.0499 6.95909 24.8249 6.85972 24.5904 6.85972H22.2886V5.70227H26.0318C26.3336 5.70227 26.5814 5.92895 26.6082 6.2296C26.6161 6.31988 26.7953 8.47032 25.9044 10.88Z"/>
</mask>
<path d="M27.4727 6.1524C27.4057 5.40087 26.7862 4.83412 26.0316 4.83412H22.2884V4.28248H22.3613C22.8958 4.28248 23.3307 3.84762 23.3307 3.31317V1.96931C23.3307 1.43486 22.8958 1 22.3613 1H11.3441C11.1044 1 10.91 1.19428 10.91 1.43404C10.91 1.67381 11.1044 1.86809 11.3441 1.86809H22.3613C22.4171 1.86809 22.4626 1.91346 22.4626 1.96931V3.31317C22.4626 3.36902 22.4171 3.41439 22.3613 3.41439H6.13347C6.07762 3.41439 6.03219 3.36902 6.03219 3.31317V1.96931C6.03219 1.91346 6.07762 1.86809 6.13347 1.86809H9.309C9.54871 1.86809 9.74304 1.67381 9.74304 1.43404C9.74304 1.19428 9.54871 1 9.309 1H6.13347C5.59896 1 5.1641 1.43486 5.1641 1.96931V3.31317C5.1641 3.84762 5.59896 4.28248 6.13347 4.28248H6.20633V4.83412H2.46313C1.70858 4.83412 1.08906 5.40087 1.02204 6.1524C1.01324 6.25067 0.818214 8.59005 1.77618 11.181C2.65266 13.5516 4.6635 16.5784 9.27074 17.7663C10.0124 18.3524 10.8593 18.8109 11.7782 19.1081L11.9967 19.4687C12.4096 20.1504 12.6278 20.9563 12.6278 21.7992C12.6278 22.3141 12.5458 22.8171 12.3839 23.2942L12.0806 24.1882H11.0712C10.0354 24.1882 9.19267 25.0309 9.19267 26.0668V26.976H7.61298C7.16719 26.976 6.8045 27.3388 6.8045 27.7846V29.8234C6.8045 30.2692 7.16719 30.6319 7.61298 30.6319H20.8818C21.3276 30.6319 21.6903 30.2692 21.6903 29.8234V27.7846C21.6903 27.3388 21.3276 26.976 20.8818 26.976H19.3022V26.0668C19.3022 25.0309 18.4594 24.1882 17.4236 24.1882H16.4143L16.1109 23.2942C15.949 22.8172 15.867 22.3141 15.867 21.7992C15.867 20.9563 16.0852 20.1505 16.4981 19.4687L16.7166 19.1081C17.6354 18.8109 18.4823 18.3524 19.224 17.7663C23.8313 16.5784 25.8421 13.5516 26.7186 11.181C27.6766 8.59005 27.4815 6.25073 27.4727 6.1524ZM6.36704 13.058C5.55775 12.3003 4.93776 11.3604 4.51373 10.2402C4.2191 9.46179 4.02627 8.61668 3.94044 7.72775H6.20633V11.4554C6.20633 12.0041 6.26183 12.54 6.36704 13.058ZM2.59045 10.88C1.6995 8.47032 1.87867 6.31988 1.88672 6.22955C1.91351 5.92895 2.16132 5.70227 2.46313 5.70227H6.20633V6.85972H3.9045C3.67 6.85972 3.44499 6.95909 3.28712 7.13236C3.12907 7.30586 3.05094 7.53943 3.07276 7.77324C3.16414 8.75262 3.37578 9.68605 3.70183 10.5475C4.34578 12.2489 5.38813 13.5773 6.81492 14.5231C7.09566 15.2007 7.46645 15.8318 7.91241 16.4016C4.76773 15.0981 3.28671 12.7631 2.59045 10.88ZM20.8222 27.8441V29.7638H7.67253V27.8441H20.8222ZM17.4236 25.0563C17.9807 25.0563 18.4341 25.5096 18.4341 26.0668V26.976H10.0608V26.0668C10.0608 25.5096 10.5141 25.0563 11.0712 25.0563H17.4236ZM15.2889 23.5731L15.4975 24.1882H12.9972L13.2059 23.573C13.3983 23.006 13.4959 22.4092 13.4959 21.7992C13.4959 20.9454 13.305 20.1211 12.9422 19.39C13.3671 19.4597 13.803 19.4965 14.2474 19.4965C14.6917 19.4965 15.1276 19.4597 15.5525 19.39C15.1897 20.1211 14.9989 20.9454 14.9989 21.7992C14.9989 22.4092 15.0964 23.006 15.2889 23.5731ZM14.2474 18.6284C10.2922 18.6284 7.07442 15.4106 7.07442 11.4554V4.28248H21.4204V11.4554C21.4204 15.4106 18.2026 18.6284 14.2474 18.6284ZM25.9044 10.88C25.2081 12.7631 23.727 15.0984 20.5822 16.4019C21.029 15.8311 21.4003 15.1987 21.6813 14.5197C22.9064 13.7062 23.8499 12.6106 24.4996 11.2387C24.6022 11.022 24.5097 10.7632 24.2931 10.6606C24.0765 10.5581 23.8177 10.6504 23.7151 10.8671C23.3128 11.7165 22.7824 12.4483 22.1274 13.0607C22.2329 12.5418 22.2886 12.0051 22.2886 11.4555V7.72781H24.5544C24.5113 8.17441 24.4395 8.61731 24.3411 9.04488C24.2873 9.27851 24.4331 9.5115 24.6667 9.56521C24.9001 9.61926 25.1333 9.47325 25.187 9.23962C25.2967 8.76338 25.3757 8.27002 25.4221 7.77324C25.4439 7.53943 25.3658 7.30586 25.2078 7.13236C25.0499 6.95909 24.8249 6.85972 24.5904 6.85972H22.2886V5.70227H26.0318C26.3336 5.70227 26.5814 5.92895 26.6082 6.2296C26.6161 6.31988 26.7953 8.47032 25.9044 10.88Z" fill="#FF7F00"/>
<path d="M27.4727 6.1524C27.4057 5.40087 26.7862 4.83412 26.0316 4.83412H22.2884V4.28248H22.3613C22.8958 4.28248 23.3307 3.84762 23.3307 3.31317V1.96931C23.3307 1.43486 22.8958 1 22.3613 1H11.3441C11.1044 1 10.91 1.19428 10.91 1.43404C10.91 1.67381 11.1044 1.86809 11.3441 1.86809H22.3613C22.4171 1.86809 22.4626 1.91346 22.4626 1.96931V3.31317C22.4626 3.36902 22.4171 3.41439 22.3613 3.41439H6.13347C6.07762 3.41439 6.03219 3.36902 6.03219 3.31317V1.96931C6.03219 1.91346 6.07762 1.86809 6.13347 1.86809H9.309C9.54871 1.86809 9.74304 1.67381 9.74304 1.43404C9.74304 1.19428 9.54871 1 9.309 1H6.13347C5.59896 1 5.1641 1.43486 5.1641 1.96931V3.31317C5.1641 3.84762 5.59896 4.28248 6.13347 4.28248H6.20633V4.83412H2.46313C1.70858 4.83412 1.08906 5.40087 1.02204 6.1524C1.01324 6.25067 0.818214 8.59005 1.77618 11.181C2.65266 13.5516 4.6635 16.5784 9.27074 17.7663C10.0124 18.3524 10.8593 18.8109 11.7782 19.1081L11.9967 19.4687C12.4096 20.1504 12.6278 20.9563 12.6278 21.7992C12.6278 22.3141 12.5458 22.8171 12.3839 23.2942L12.0806 24.1882H11.0712C10.0354 24.1882 9.19267 25.0309 9.19267 26.0668V26.976H7.61298C7.16719 26.976 6.8045 27.3388 6.8045 27.7846V29.8234C6.8045 30.2692 7.16719 30.6319 7.61298 30.6319H20.8818C21.3276 30.6319 21.6903 30.2692 21.6903 29.8234V27.7846C21.6903 27.3388 21.3276 26.976 20.8818 26.976H19.3022V26.0668C19.3022 25.0309 18.4594 24.1882 17.4236 24.1882H16.4143L16.1109 23.2942C15.949 22.8172 15.867 22.3141 15.867 21.7992C15.867 20.9563 16.0852 20.1505 16.4981 19.4687L16.7166 19.1081C17.6354 18.8109 18.4823 18.3524 19.224 17.7663C23.8313 16.5784 25.8421 13.5516 26.7186 11.181C27.6766 8.59005 27.4815 6.25073 27.4727 6.1524ZM6.36704 13.058C5.55775 12.3003 4.93776 11.3604 4.51373 10.2402C4.2191 9.46179 4.02627 8.61668 3.94044 7.72775H6.20633V11.4554C6.20633 12.0041 6.26183 12.54 6.36704 13.058ZM2.59045 10.88C1.6995 8.47032 1.87867 6.31988 1.88672 6.22955C1.91351 5.92895 2.16132 5.70227 2.46313 5.70227H6.20633V6.85972H3.9045C3.67 6.85972 3.44499 6.95909 3.28712 7.13236C3.12907 7.30586 3.05094 7.53943 3.07276 7.77324C3.16414 8.75262 3.37578 9.68605 3.70183 10.5475C4.34578 12.2489 5.38813 13.5773 6.81492 14.5231C7.09566 15.2007 7.46645 15.8318 7.91241 16.4016C4.76773 15.0981 3.28671 12.7631 2.59045 10.88ZM20.8222 27.8441V29.7638H7.67253V27.8441H20.8222ZM17.4236 25.0563C17.9807 25.0563 18.4341 25.5096 18.4341 26.0668V26.976H10.0608V26.0668C10.0608 25.5096 10.5141 25.0563 11.0712 25.0563H17.4236ZM15.2889 23.5731L15.4975 24.1882H12.9972L13.2059 23.573C13.3983 23.006 13.4959 22.4092 13.4959 21.7992C13.4959 20.9454 13.305 20.1211 12.9422 19.39C13.3671 19.4597 13.803 19.4965 14.2474 19.4965C14.6917 19.4965 15.1276 19.4597 15.5525 19.39C15.1897 20.1211 14.9989 20.9454 14.9989 21.7992C14.9989 22.4092 15.0964 23.006 15.2889 23.5731ZM14.2474 18.6284C10.2922 18.6284 7.07442 15.4106 7.07442 11.4554V4.28248H21.4204V11.4554C21.4204 15.4106 18.2026 18.6284 14.2474 18.6284ZM25.9044 10.88C25.2081 12.7631 23.727 15.0984 20.5822 16.4019C21.029 15.8311 21.4003 15.1987 21.6813 14.5197C22.9064 13.7062 23.8499 12.6106 24.4996 11.2387C24.6022 11.022 24.5097 10.7632 24.2931 10.6606C24.0765 10.5581 23.8177 10.6504 23.7151 10.8671C23.3128 11.7165 22.7824 12.4483 22.1274 13.0607C22.2329 12.5418 22.2886 12.0051 22.2886 11.4555V7.72781H24.5544C24.5113 8.17441 24.4395 8.61731 24.3411 9.04488C24.2873 9.27851 24.4331 9.5115 24.6667 9.56521C24.9001 9.61926 25.1333 9.47325 25.187 9.23962C25.2967 8.76338 25.3757 8.27002 25.4221 7.77324C25.4439 7.53943 25.3658 7.30586 25.2078 7.13236C25.0499 6.95909 24.8249 6.85972 24.5904 6.85972H22.2886V5.70227H26.0318C26.3336 5.70227 26.5814 5.92895 26.6082 6.2296C26.6161 6.31988 26.7953 8.47032 25.9044 10.88Z" stroke="#FF7F00" stroke-width="0.6" mask="url(#path-1-outside-1)"/>
</svg>
