<svg width="31" height="31" viewBox="0 0 31 31" fill="none" xmlns="http://www.w3.org/2000/svg">
<path d="M2.85376 3.89111H7.78227V0.908203C7.78227 0.406633 8.1889 0 8.69047 0H30.0918C30.5934 0 31 0.406633 31 0.908203V26.2006C31 28.847 28.847 31 26.2006 31C26.2006 31 11.1134 31.0001 4.79931 31.0001C2.14875 31 0 28.8513 0 26.2006V6.74486C0 5.17131 1.2802 3.89111 2.85376 3.89111ZM5.51394 5.70751C5.64109 6.03374 5.70751 6.38418 5.70751 6.74492V9.72789H7.78227V5.70757H5.51394V5.70751ZM26.2006 29.1835C27.8454 29.1835 29.1836 27.8454 29.1836 26.2006V1.81641H9.59868V26.2006C9.59868 27.3283 9.20876 28.3644 8.5577 29.1835H26.2006ZM1.81641 26.2006C1.81641 27.8481 3.15189 29.1836 4.79937 29.1836C6.13007 29.1836 7.25685 28.3121 7.64108 27.1088H4.79937C4.2978 27.1088 3.89117 26.7022 3.89117 26.2006C3.89117 25.6991 4.2978 25.2924 4.79937 25.2924H7.78233V23.2177H4.79937C4.2978 23.2177 3.89117 22.811 3.89117 22.3095C3.89117 21.8079 4.2978 21.4013 4.79937 21.4013H7.78233V19.3265H4.79937C4.2978 19.3265 3.89117 18.9199 3.89117 18.4183C3.89117 17.9167 4.2978 17.5101 4.79937 17.5101H7.78233V15.4353H4.79937C4.2978 15.4353 3.89117 15.0287 3.89117 14.5271C3.89117 14.0256 4.2978 13.6189 4.79937 13.6189H7.78233V11.5442H4.79937C4.2978 11.5442 3.89117 11.1375 3.89117 10.636V6.74492C3.89117 6.17826 3.43301 5.70751 2.85382 5.70751C2.28183 5.70751 1.81647 6.17294 1.81647 6.74492V26.2006H1.81641Z" fill="#BCBCBC"/>
<path d="M12.5817 3.89111H26.2007C26.7023 3.89111 27.1089 4.29775 27.1089 4.79932C27.1089 5.30089 26.7023 5.70752 26.2007 5.70752H12.5817C12.0801 5.70752 11.6735 5.30089 11.6735 4.79932C11.6735 4.29775 12.0801 3.89111 12.5817 3.89111Z" fill="#BCBCBC"/>
<path d="M12.5814 17.5101H17.4453C17.9469 17.5101 18.3535 17.9168 18.3535 18.4183C18.3535 18.9199 17.9469 19.3265 17.4453 19.3265H12.5814C12.0798 19.3265 11.6732 18.9199 11.6732 18.4183C11.6732 17.9168 12.0798 17.5101 12.5814 17.5101Z" fill="#BCBCBC"/>
<path d="M21.3368 17.5101H26.2007C26.7023 17.5101 27.1089 17.9168 27.1089 18.4183C27.1089 18.9199 26.7023 19.3265 26.2007 19.3265H21.3368C20.8352 19.3265 20.4286 18.9199 20.4286 18.4183C20.4286 17.9168 20.8352 17.5101 21.3368 17.5101Z" fill="#BCBCBC"/>
<path d="M12.5814 25.2925H17.4453C17.9469 25.2925 18.3535 25.6991 18.3535 26.2007C18.3535 26.7023 17.9469 27.1089 17.4453 27.1089H12.5814C12.0798 27.1089 11.6732 26.7023 11.6732 26.2007C11.6732 25.6991 12.0798 25.2925 12.5814 25.2925Z" fill="#BCBCBC"/>
<path d="M21.3368 25.2925H26.2007C26.7023 25.2925 27.1089 25.6991 27.1089 26.2007C27.1089 26.7023 26.7023 27.1089 26.2007 27.1089H21.3368C20.8352 27.1089 20.4286 26.7023 20.4286 26.2007C20.4286 25.6991 20.8352 25.2925 21.3368 25.2925Z" fill="#BCBCBC"/>
<path d="M12.5814 21.4014H17.4453C17.9469 21.4014 18.3535 21.808 18.3535 22.3096C18.3535 22.8111 17.9469 23.2178 17.4453 23.2178H12.5814C12.0798 23.2178 11.6732 22.8111 11.6732 22.3096C11.6732 21.808 12.0798 21.4014 12.5814 21.4014Z" fill="#BCBCBC"/>
<path d="M21.3368 21.4014H26.2007C26.7023 21.4014 27.1089 21.808 27.1089 22.3096C27.1089 22.8111 26.7023 23.2178 26.2007 23.2178H21.3368C20.8352 23.2178 20.4286 22.8111 20.4286 22.3096C20.4286 21.808 20.8352 21.4014 21.3368 21.4014Z" fill="#BCBCBC"/>
<path d="M12.5817 7.78223H26.2007C26.7023 7.78223 27.1089 8.18886 27.1089 8.69043V14.5271C27.1089 15.0287 26.7023 15.4354 26.2007 15.4354H12.5817C12.0801 15.4354 11.6735 15.0287 11.6735 14.5271V8.69043C11.6735 8.18886 12.0801 7.78223 12.5817 7.78223ZM13.4899 13.619H25.2925V9.59869H13.4899V13.619Z" fill="#BCBCBC"/>
</svg>
