<svg width="33" height="35" viewBox="0 0 33 35" fill="none" xmlns="http://www.w3.org/2000/svg">
<path d="M31.6022 32.5109H30.3886V12.1849C30.3886 11.119 29.5217 10.2523 28.4559 10.2523H25.2962C24.2303 10.2523 23.3636 11.1191 23.3636 12.1849V32.5109H20.174V21.4848C20.174 20.4189 19.3073 19.5521 18.2414 19.5521H15.0817C14.0158 19.5521 13.149 20.419 13.149 21.4848V32.5109H9.9595V26.897C9.9595 25.8311 9.09265 24.9643 8.02688 24.9643H4.86706C3.80121 24.9643 2.93443 25.8312 2.93443 26.897V32.5109H1.64453C1.1781 32.5109 0.8 32.889 0.8 33.3554C0.8 33.8219 1.1781 34.2 1.64453 34.2H31.6022C32.0687 34.2 32.4468 33.8219 32.4468 33.3554C32.4468 32.889 32.0687 32.5109 31.6022 32.5109ZM8.27031 32.5109H4.62343V26.897C4.62343 26.7628 4.73285 26.6534 4.867 26.6534H8.02675C8.16089 26.6534 8.27031 26.7628 8.27031 26.897V32.5109ZM18.4849 32.5109H14.838V21.4848C14.838 21.3506 14.9475 21.2412 15.0816 21.2412H18.2413C18.3754 21.2412 18.4849 21.3507 18.4849 21.4848V32.5109ZM28.6995 32.5109H25.0526V12.1849C25.0526 12.0508 25.162 11.9413 25.2962 11.9413H28.4559C28.5901 11.9413 28.6995 12.0508 28.6995 12.1849V32.5109Z" fill="#BCBCBC" stroke="#BCBCBC" stroke-width="0.4"/>
<path d="M27.5052 2.48906H25.5802C25.1138 2.48906 24.7357 2.11096 24.7357 1.64453C24.7357 1.1781 25.1138 0.8 25.5802 0.8H29.4796C29.4915 0.8 29.5018 0.80061 29.508 0.80101L29.5124 0.801283C29.7381 0.792769 29.968 0.873947 30.1413 1.0473M27.5052 2.48906L30.1413 1.0473L30 1.18863L30.1413 1.0473M27.5052 2.48906L21.6164 8.37793L19.355 6.11654C19.1966 5.95819 18.9818 5.86918 18.7578 5.86918C18.5338 5.86918 18.319 5.95819 18.1606 6.11654L6.57396 17.7033C6.24415 18.0331 6.24418 18.5678 6.57394 18.8977L6.57403 18.8978C6.7389 19.0625 6.95533 19.1449 7.17113 19.1449C7.38689 19.1449 7.60344 19.0625 7.7683 18.8976C7.76831 18.8975 7.76832 18.8975 7.76833 18.8975L18.7578 7.90798L21.0192 10.1694C21.349 10.4992 21.8837 10.4992 22.2136 10.1694L22.2136 10.1694L28.6996 3.68346V5.37978C28.6996 5.84622 29.0777 6.22432 29.5441 6.22432C30.0105 6.22432 30.3886 5.84622 30.3886 5.37978V1.70898C30.3886 1.69717 30.388 1.68685 30.3876 1.68063L30.3873 1.67625C30.3958 1.45059 30.3147 1.2207 30.1413 1.0473M27.5052 2.48906L30.1413 1.0473" fill="#BCBCBC" stroke="#BCBCBC" stroke-width="0.4"/>
<path d="M4.99853 21.3938C5.46496 21.3938 5.84307 21.0157 5.84307 20.5493C5.84307 20.0829 5.46496 19.7048 4.99853 19.7048C4.53211 19.7048 4.154 20.0829 4.154 20.5493C4.154 21.0157 4.53211 21.3938 4.99853 21.3938Z" fill="#BCBCBC" stroke="#BCBCBC" stroke-width="0.4"/>
</svg>
