<svg width="33" height="30" viewBox="0 0 33 30" fill="none" xmlns="http://www.w3.org/2000/svg">
<path d="M32.15 16.4395C32.15 13.8871 30.3639 11.7651 28.0648 11.5294C27.7709 10.6554 27.0682 9.96812 26.1844 9.69594C25.5267 4.67514 21.4292 0.85 16.5 0.85C11.5708 0.85 7.47329 4.67515 6.81561 9.69594C5.95996 9.95945 5.27399 10.612 4.96451 11.4465V5.7832C4.96451 5.19879 4.49072 4.725 3.90631 4.725C3.3219 4.725 2.84811 5.19879 2.84811 5.7832V12.3453C1.64169 13.2335 0.85 14.7387 0.85 16.4395C0.85 18.9918 2.63612 21.1138 4.93517 21.3495C5.22872 22.2225 5.93006 22.909 6.81235 23.1818C7.24869 25.4587 9.25363 27.1852 11.6562 27.1852H11.7607C12.1891 28.3158 13.2826 29.1227 14.5625 29.1227H18.4375C20.0895 29.1227 21.4332 27.7789 21.4332 26.127C21.4332 24.475 20.0895 23.1313 18.4375 23.1313H14.5625C13.2826 23.1313 12.1891 23.9381 11.7607 25.0688H11.6562C10.4002 25.0688 9.33311 24.2417 8.9713 23.1032C10.0281 22.6783 10.777 21.6434 10.777 20.4355V12.4434C10.777 11.2249 10.015 10.1826 8.94359 9.76475C9.54875 5.87959 12.7213 2.96641 16.5 2.96641C20.2787 2.96641 23.4513 5.87959 24.0564 9.76475C22.985 10.1826 22.223 11.2249 22.223 12.4434V20.4355C22.223 22.0207 23.5125 23.3102 25.0977 23.3102H25.3398C26.6059 23.3102 27.6822 22.4875 28.0648 21.3495C30.3639 21.1138 32.15 18.9918 32.15 16.4395ZM18.4375 25.2477C18.9222 25.2477 19.3168 25.6422 19.3168 26.127C19.3168 26.6117 18.9222 27.0063 18.4375 27.0063H14.5625C14.0778 27.0063 13.6832 26.6117 13.6832 26.127C13.6832 25.6422 14.0778 25.2477 14.5625 25.2477H18.4375ZM2.96641 16.4395C2.96641 15.1329 3.76686 14.0184 4.78555 13.7086V19.1703C3.76687 18.8605 2.96641 17.746 2.96641 16.4395ZM8.66055 20.4355C8.66055 20.8535 8.32028 21.1938 7.90234 21.1938H7.66016C7.24222 21.1938 6.90195 20.8535 6.90195 20.4355V20.4185V20.4014V20.3844V20.3673V20.3503V20.3333V20.3163V20.2993V20.2823V20.2654V20.2484V20.2315V20.2146V20.1977V20.1807V20.1639V20.147V20.1301V20.1132V20.0964V20.0796V20.0627V20.0459V20.0291V20.0123V19.9956V19.9788V19.962V19.9453V19.9286V19.9118V19.8951V19.8784V19.8617V19.845V19.8284V19.8117V19.7951V19.7784V19.7618V19.7452V19.7286V19.712V19.6954V19.6788V19.6623V19.6457V19.6292V19.6126V19.5961V19.5796V19.5631V19.5466V19.5301V19.5137V19.4972V19.4808V19.4643V19.4479V19.4315V19.4151V19.3987V19.3823V19.3659V19.3495V19.3332V19.3168V19.3005V19.2841V19.2678V19.2515V19.2352V19.2189V19.2026V19.1863V19.1701V19.1538V19.1376V19.1213V19.1051V19.0889V19.0727V19.0565V19.0403V19.0241V19.0079V18.9917V18.9756V18.9594V18.9433V18.9272V18.911V18.8949V18.8788V18.8627V18.8466V18.8306V18.8145V18.7984V18.7824V18.7663V18.7503V18.7343V18.7182V18.7022V18.6862V18.6702V18.6542V18.6383V18.6223V18.6063V18.5904V18.5744V18.5585V18.5425V18.5266V18.5107V18.4948V18.4789V18.463V18.4471V18.4312V18.4154V18.3995V18.3836V18.3678V18.352V18.3361V18.3203V18.3045V18.2887V18.2729V18.2571V18.2413V18.2255V18.2097V18.194V18.1782V18.1624V18.1467V18.1309V18.1152V18.0995V18.0838V18.0681V18.0523V18.0366V18.0209V18.0053V17.9896V17.9739V17.9582V17.9426V17.9269V17.9113V17.8956V17.88V17.8644V17.8487V17.8331V17.8175V17.8019V17.7863V17.7707V17.7551V17.7395V17.724V17.7084V17.6928V17.6773V17.6617V17.6462V17.6306V17.6151V17.5996V17.5841V17.5685V17.553V17.5375V17.522V17.5065V17.491V17.4755V17.4601V17.4446V17.4291V17.4136V17.3982V17.3827V17.3673V17.3518V17.3364V17.321V17.3055V17.2901V17.2747V17.2593V17.2439V17.2285V17.2131V17.1977V17.1823V17.1669V17.1515V17.1361V17.1207V17.1054V17.09V17.0746V17.0593V17.0439V17.0286V17.0132V16.9979V16.9826V16.9672V16.9519V16.9366V16.9213V16.9059V16.8906V16.8753V16.86V16.8447V16.8294V16.8141V16.7988V16.7836V16.7683V16.753V16.7377V16.7224V16.7072V16.6919V16.6766V16.6614V16.6461V16.6309V16.6156V16.6004V16.5851V16.5699V16.5547V16.5394V16.5242V16.509V16.4938V16.4785V16.4633V16.4481V16.4329V16.4177V16.4025V16.3873V16.3721V16.3569V16.3417V16.3265V16.3113V16.2961V16.2809V16.2657V16.2505V16.2353V16.2202V16.205V16.1898V16.1746V16.1595V16.1443V16.1291V16.114V16.0988V16.0836V16.0685V16.0533V16.0382V16.023V16.0079V15.9927V15.9776V15.9624V15.9473V15.9321V15.917V15.9018V15.8867V15.8716V15.8564V15.8413V15.8262V15.811V15.7959V15.7808V15.7656V15.7505V15.7354V15.7202V15.7051V15.69V15.6749V15.6597V15.6446V15.6295V15.6144V15.5993V15.5841V15.569V15.5539V15.5388V15.5237V15.5086V15.4934V15.4783V15.4632V15.4481V15.433V15.4179V15.4027V15.3876V15.3725V15.3574V15.3423V15.3272V15.3121V15.2969V15.2818V15.2667V15.2516V15.2365V15.2214V15.2063V15.1911V15.176V15.1609V15.1458V15.1307V15.1155V15.1004V15.0853V15.0702V15.0551V15.0399V15.0248V15.0097V14.9946V14.9794V14.9643V14.9492V14.9341V14.9189V14.9038V14.8887V14.8735V14.8584V14.8433V14.8281V14.813V14.7979V14.7827V14.7676V14.7524V14.7373V14.7222V14.707V14.6919V14.6767V14.6616V14.6464V14.6313V14.6161V14.6009V14.5858V14.5706V14.5554V14.5403V14.5251V14.5099V14.4948V14.4796V14.4644V14.4492V14.4341V14.4189V14.4037V14.3885V14.3733V14.3581V14.3429V14.3277V14.3125V14.2973V14.2821V14.2669V14.2517V14.2365V14.2213V14.2061V14.1908V14.1756V14.1604V14.1452V14.1299V14.1147V14.0994V14.0842V14.069V14.0537V14.0385V14.0232V14.0079V13.9927V13.9774V13.9621V13.9469V13.9316V13.9163V13.901V13.8857V13.8705V13.8552V13.8399V13.8246V13.8093V13.794V13.7786V13.7633V13.748V13.7327V13.7174V13.702V13.6867V13.6714V13.656V13.6407V13.6253V13.61V13.5946V13.5792V13.5639V13.5485V13.5331V13.5177V13.5023V13.4869V13.4715V13.4561V13.4407V13.4253V13.4099V13.3945V13.3791V13.3636V13.3482V13.3328V13.3173V13.3019V13.2864V13.271V13.2555V13.24V13.2245V13.2091V13.1936V13.1781V13.1626V13.1471V13.1316V13.1161V13.1006V13.085V13.0695V13.054V13.0384V13.0229V13.0073V12.9918V12.9762V12.9606V12.9451V12.9295V12.9139V12.8983V12.8827V12.8671V12.8515V12.8359V12.8203V12.8046V12.789V12.7734V12.7577V12.742V12.7264V12.7107V12.695V12.6794V12.6637V12.648V12.6323V12.6166V12.6009V12.5851V12.5694V12.5537V12.5379V12.5222V12.5064V12.4907V12.4749V12.4591V12.4434C6.90195 12.0254 7.24222 11.6852 7.66016 11.6852H7.90234C8.32028 11.6852 8.66055 12.0254 8.66055 12.4434V20.4355ZM26.098 20.4355C26.098 20.8535 25.7578 21.1938 25.3398 21.1938H25.0977C24.6797 21.1938 24.3395 20.8535 24.3395 20.4355V12.4434C24.3395 12.0254 24.6797 11.6852 25.0977 11.6852H25.3398C25.7578 11.6852 26.098 12.0254 26.098 12.4434V20.4355ZM30.0336 16.4395C30.0336 17.7461 29.2331 18.8605 28.2145 19.1703V13.7087C29.2331 14.0185 30.0336 15.1329 30.0336 16.4395Z" fill="#FF7F00" stroke="#FF7F00" stroke-width="0.3"/>
</svg>
